#N canvas 283 56 741 622 12;
#X declare -lib pix_opencv;
#X obj 385 157 gemwin;
#X msg 459 120 destroy;
#X obj 19 10 cnv 15 700 60 empty empty CVLIB:OpenCV_with_Pure_Data
20 30 0 30 -219146 -66577 0;
#X text 36 123 1) click here ------------------>;
#X text 38 156 2) click here --->;
#X obj 171 158 bng 15 250 50 0 empty empty empty 17 7 0 10 -262144
-1 -1;
#X obj 41 504 cvDrawContours;
#X text 379 316 outlet 2 : nb of contours contained in cvContours structure
;
#X text 379 192 inlet 1 : cvContours sequence (cvSeq);
#X text 379 296 outlet 1 : cvContours sequence (cvSeq);
#X text 378 210 inlet 2 : f : approximation factor (float);
#X text 428 230 0 < f < 1 : approximation factor relative to contour
perimeter;
#X text 429 264 f >= 1 : approximation factor absolute (pixels);
#X obj 109 376 cvFindContours;
#X obj 39 541 cvShowImage;
#X obj 81 191 gemhead;
#X obj 78 216 pix_video;
#X msg 280 124 dimen 1 1 \, create \, 1;
#X obj 88 263 pix_gray;
#X obj 36 320 t a a;
#X floatatom 248 381 5 0 0 0 - - -, f 5;
#X msg 177 458 color 255 0 0 \, thickness 4;
#X text 36 81 cvApproxContours / cvApproxPoly : implementation of cvApproxPoly
function;
#X obj 250 251 cvApproxContours;
#X obj 594 31 cvlib-overview;
#X obj 609 120 declare -lib pix_opencv;
#X obj 106 297 pix_opencv_athreshold;
#X floatatom 285 286 5 0 0 0 - - -, f 5;
#X obj 36 345 pix_rgba;
#X floatatom 276 426 5 0 0 0 - - -, f 5;
#X obj 141 405 cvApproxContours 11;
#X text 356 361 cvApproxContours reads the input cvContours (cvSeq)
horizontally (contours->h_next) and outputs the approximated contours
in a new cvContours container;
#X connect 1 0 0 0;
#X connect 6 0 14 0;
#X connect 13 1 30 0;
#X connect 15 0 16 0;
#X connect 16 0 18 0;
#X connect 17 0 0 0;
#X connect 18 0 26 0;
#X connect 19 0 28 0;
#X connect 19 1 13 0;
#X connect 20 0 30 1;
#X connect 21 0 6 0;
#X connect 26 0 19 0;
#X connect 27 0 26 2;
#X connect 28 0 6 0;
#X connect 30 0 6 1;
#X connect 30 1 29 0;
