#N canvas 1 56 450 300 10;
#X obj 93 87 inlet;
#X obj 107 223 outlet;
#X obj 116 147 pix_opencv_edge;
#X obj 263 71 inlet;
#X obj 251 121 f \$1;
#X obj 251 144 select 0;
#X msg 251 167 3;
#X obj 184 69 loadbang;
#X text 85 19 remplacant provisoire;
#X connect 0 0 2 0;
#X connect 2 0 1 0;
#X connect 3 0 4 0;
#X connect 4 0 5 0;
#X connect 5 0 6 0;
#X connect 6 0 2 1;
#X connect 7 0 4 0;
