#N canvas 1 84 741 622 12;
#X obj 385 157 gemwin;
#X msg 458 120 destroy;
#X obj 19 10 cnv 15 700 60 empty empty CVLIB:OpenCV_with_Pure_Data
20 30 0 30 -219146 -66577 0;
#X text 36 123 1) click here ------------------>;
#X obj 55 211 gemhead;
#X msg 280 124 dimen 1 1 \, create \, 1;
#X obj 601 31 cvlib-overview;
#X obj 207 208 delay 100;
#X obj 208 180 loadbang;
#X msg 258 252 set;
#X text 288 251 reset background;
#X obj 174 382 cnv 15 200 40 empty empty empty 20 12 0 14 -262130 -66577
0;
#X text 33 81 cvContoursConvexityDefects;
#X obj 53 325 cvFindContours;
#X obj 52 620 cvShowImage contours;
#X obj 179 412 unpack f f f f;
#X floatatom 179 440 5 0 0 0 index - -, f 5;
#X floatatom 180 463 5 0 0 0 x - -, f 5;
#X floatatom 180 485 5 0 0 0 y - -, f 5;
#X floatatom 182 507 5 0 0 0 depth - -, f 5;
#X obj 52 563 cvDrawContours;
#X obj 54 594 cvDrawCircle;
#X msg 354 569 10;
#X msg 103 238 colorspace Grey;
#X msg 171 569 color 255 0 0 \, width -1;
#X obj 54 265 pix_video;
#X obj 53 302 pix_opencv_bgsubstract;
#X obj 52 380 pix_rgba;
#X msg 159 531 color 0 255 0 \, thickness 2;
#X obj 324 492 loadbang;
#X obj 147 360 t a a;
#X floatatom 491 430 5 0 0 0 found_convexity_defects - -, f 5;
#N canvas 114 114 597 365 advanced 0;
#X obj 41 265 s \$0-params;
#X msg 113 94 margin \$1;
#X obj 120 74 hsl 128 15 0 127 0 1 empty empty empty -2 -8 0 10 -262144
-1 -1 0 1;
#X floatatom 187 93 5 0 0 0 - - -, f 5;
#X obj 127 159 tgl 15 0 empty empty empty 17 7 0 10 -262144 -1 -1 0
1;
#X text 191 179 0 = using cvConvexityDefects method;
#X text 192 201 1 = using cvConvexHull to find;
#X text 239 222 non-convex points of contour;
#X text 124 35 bypass all candidates that;
#X text 122 53 are too narrow from convex contour;
#X text 234 245 this method is a bit more permissive;
#X msg 114 203 method \$1;
#X text 155 156 convexity searching method (default= 0);
#X connect 1 0 0 0;
#X connect 2 0 1 0;
#X connect 2 0 3 0;
#X connect 4 0 11 0;
#X connect 11 0 0 0;
#X restore 510 342 pd advanced;
#X obj 208 355 r \$0-params;
#X obj 521 246 cvContoursFeature Perimeter;
#X obj 529 272 > 20;
#X obj 494 220 t a a;
#X obj 530 311 cvRouteContours 1;
#X obj 179 391 cvContoursConvexityDefects 113;
#X obj 296 307 cvApproxContours 0.9;
#X connect 1 0 0 0;
#X connect 4 0 25 0;
#X connect 5 0 0 0;
#X connect 7 0 23 0;
#X connect 8 0 7 0;
#X connect 9 0 26 0;
#X connect 13 0 27 0;
#X connect 13 1 36 0;
#X connect 15 0 16 0;
#X connect 15 1 17 0;
#X connect 15 1 21 1;
#X connect 15 2 18 0;
#X connect 15 2 21 2;
#X connect 15 3 19 0;
#X connect 20 0 21 0;
#X connect 21 0 14 0;
#X connect 22 0 21 3;
#X connect 23 0 25 0;
#X connect 24 0 21 0;
#X connect 25 0 26 0;
#X connect 26 0 13 0;
#X connect 27 0 20 0;
#X connect 28 0 20 0;
#X connect 29 0 28 0;
#X connect 29 0 24 0;
#X connect 29 0 22 0;
#X connect 30 0 20 1;
#X connect 30 1 38 0;
#X connect 33 0 38 0;
#X connect 34 0 35 0;
#X connect 35 0 37 1;
#X connect 36 0 37 0;
#X connect 36 1 34 0;
#X connect 37 0 39 0;
#X connect 38 0 15 0;
#X connect 38 1 31 0;
#X connect 39 0 30 0;
