#N canvas 31 100 973 632 12;
#X declare -lib pix_opencv;
#X obj 10 213 cnv 15 430 380 empty empty empty 20 12 0 14 -228856 -66577
0;
#X obj 10 167 cnv 15 430 40 empty empty empty 20 12 0 14 -195568 -66577
0;
#X obj 9 71 cnv 15 430 90 empty empty empty 20 12 0 14 -228856 -66577
0;
#X obj 445 73 cnv 15 500 520 empty empty empty 20 12 0 14 -228992 -66577
0;
#X obj 714 517 cnv 15 220 70 empty empty empty 20 12 0 14 -195568 -66577
0;
#N canvas 3 81 454 304 gemwin 0;
#X obj 67 89 outlet;
#X obj 67 10 inlet;
#X obj 65 41 route create;
#X msg 67 70 set destroy;
#X msg 182 68 set create;
#N canvas 87 154 247 179 Gem.init 0;
#X obj 118 46 loadbang;
#X msg 118 81 reset;
#X obj 118 113 outlet;
#X connect 0 0 1 0;
#X connect 1 0 2 0;
#X restore 289 80 pd Gem.init;
#X obj 162 241 gemwin;
#X msg 342 184 destroy;
#X msg 283 161 frame 25;
#X obj 164 126 t b b b;
#X msg 161 189 dimen 640 560 \, create \, 1;
#X connect 1 0 2 0;
#X connect 2 0 3 0;
#X connect 2 0 9 0;
#X connect 2 1 4 0;
#X connect 2 1 7 0;
#X connect 3 0 0 0;
#X connect 4 0 0 0;
#X connect 7 0 6 0;
#X connect 8 0 6 0;
#X connect 9 0 10 0;
#X connect 9 2 8 0;
#X connect 10 0 6 0;
#X restore 724 563 pd gemwin;
#X msg 724 543 destroy;
#X text 722 523 Create window and render;
#X obj 658 326 cnv 15 250 130 empty empty empty 20 12 0 14 -4034 -66577
0;
#X obj 249 0 cnv 15 700 60 empty empty CVLIB:OpenCV_with_Pure_Data
20 30 0 30 -219146 -66577 0;
#X obj 542 76 gemhead;
#X obj 811 101 delay 100;
#X obj 812 78 loadbang;
#X msg 492 84 set;
#X text 452 92 reset background, f 10;
#X obj 677 336 cnv 15 200 40 empty empty empty 20 12 0 14 -262130 -66577
0;
#X obj 542 155 cvFindContours;
#X obj 462 495 cvDrawContours;
#X msg 615 79 colorspace Grey;
#X obj 542 107 pix_video;
#X obj 542 131 pix_opencv_bgsubstract;
#X obj 462 201 pix_rgba;
#X msg 473 442 color 0 255 0 \, thickness 2, f 15;
#X obj 492 403 loadbang;
#X obj 557 316 t a a;
#X msg 692 105 49;
#X obj 831 13 cvlib-overview;
#X obj 687 348 cvContoursPoints 100;
#X obj 687 411 route bang;
#X obj 672 435 bng 15 250 50 0 empty empty done 17 7 0 10 -262144 -1
-1;
#X obj 784 39 declare -lib pix_opencv;
#X obj 556 281 cvApproxContours 0.01;
#X obj 462 546 pix_texture;
#X obj 462 569 rectangle 5.333 4;
#X text 16 80 Description:;
#N canvas 679 252 868 463 writing_output_in_tables 1;
#X floatatom 269 369 5 0 0 0 Nb_of_points - -, f 5;
#X obj 60 373 bng 15 250 50 0 empty empty done 17 7 0 10 -262144 -1
-1;
#X text 47 393 for each contour : give nb of points and bangs;
#X obj 57 142 cvInterpolContours 67;
#X obj 390 349 table buf-x 67;
#X obj 389 372 table buf-y 67;
#X obj 57 333 cvContoursPoints buf-x buf-y 67;
#X text 487 60 tell it what tables to use;
#X msg 335 84 settab buf-x buf-y;
#X msg 335 59 settab buf-y buf-x;
#X obj 339 263 tgl 15 0 empty empty empty 17 7 0 10 -262144 -1 -1 0
1;
#X text 365 260 enable/disable table output (automatically enable when
you set tables);
#X msg 339 297 taboutput \$1;
#X msg 334 124 normalize 640 480;
#X msg 334 172 normalize 0 0;
#X text 522 136 given image dimension;
#X text 465 120 normalize points according to;
#X text 466 173 disable normalization for both axes;
#X text 462 152 disable normalization for x-axe;
#X msg 334 148 normalize 0 480;
#N canvas 1 56 479 421 audio_example 0;
#X obj 211 137 /~ 640;
#X obj 215 225 mtof~;
#X obj 215 250 osc~;
#X obj 212 305 dac~;
#X obj 209 54 phasor~ 1;
#X obj 212 163 *~ 24;
#X obj 215 192 +~ 64;
#X obj 297 240 tgl 15 1 empty empty empty 17 7 0 10 -262144 -1 -1 0
0.1;
#X obj 215 278 *~ 0.1;
#X obj 209 83 *~ 64;
#X obj 209 111 tabread4~ buf-x;
#X text 88 44 example;
#X msg 341 232 \; pd dsp 1;
#X connect 0 0 5 0;
#X connect 1 0 2 0;
#X connect 2 0 8 0;
#X connect 4 0 9 0;
#X connect 5 0 6 0;
#X connect 6 0 1 0;
#X connect 7 0 8 1;
#X connect 8 0 3 0;
#X connect 8 0 3 1;
#X connect 9 0 10 0;
#X connect 10 0 0 0;
#X restore 533 341 pd audio_example;
#X obj 57 111 r biggest_contour;
#X msg 339 16 offset 100;
#X text 427 17 to write points at specified offset in tables;
#N canvas 788 221 857 563 dumping_all_contours_in_one_unique_table
0;
#X obj 184 334 f;
#X obj 243 335 +;
#X msg 259 241 offset \$1;
#X msg 219 141 0;
#X text 292 32 dump mode (multicontours in one array);
#X text 387 240 to write points at specified offset;
#X text 307 183 increment offset after each contour;
#X text 262 140 reset offset;
#X msg 559 135 normalize 640 480;
#X obj 556 108 loadbang;
#X text 334 413 if offset exceeds array length \, remaining contours
are skipped, f 66;
#X obj 482 441 table vec_x 100000;
#X obj 482 461 table vec_y 100000;
#N canvas 682 180 596 318 draw_contour_gemvertexbuffer 0;
#X obj 175 193 loadbang;
#X obj 135 85 translateXYZ -0.5 -0.5 0;
#X obj 135 62 scaleXYZ 10.6666 -8 1;
#X obj 135 107 t a b;
#X obj 135 11 gemhead 1000;
#X obj 135 266 gemvertexbuffer;
#X obj 194 114 inlet;
#X obj 269 194 r point_number;
#X msg 269 221 resize \$1;
#X floatatom 342 226 5 0 0 0 - - -, f 5;
#X msg 175 214 draw lineloop;
#X obj 135 35 alpha;
#X msg 161 150 posX vec_x \, posY vec_y;
#X obj 135 -12 inlet;
#X connect 0 0 10 0;
#X connect 1 0 3 0;
#X connect 2 0 1 0;
#X connect 3 0 5 0;
#X connect 3 1 12 0;
#X connect 4 0 11 0;
#X connect 6 0 12 0;
#X connect 7 0 8 0;
#X connect 7 0 9 0;
#X connect 8 0 5 0;
#X connect 10 0 5 0;
#X connect 11 0 2 0;
#X connect 12 0 5 0;
#X connect 13 0 4 0;
#X restore 54 460 pd draw_contour_gemvertexbuffer;
#X text 70 440 draw with gemvertexbuffer;
#X obj 118 370 f;
#X obj 144 121 t b a b;
#X obj 118 416 s point_number;
#X floatatom 118 395 5 0 0 0 - - -, f 5;
#X obj 46 424 tgl 15 1 empty empty empty 17 7 0 10 -262144 -1 -1 0
1;
#X obj 384 332 + 1;
#X obj 482 481 table vec_z 100000;
#X obj 148 68 r contours;
#X obj 186 292 cvContoursPoints vec_x vec_y 128;
#X connect 0 0 1 0;
#X connect 1 0 2 0;
#X connect 1 0 0 1;
#X connect 1 0 15 1;
#X connect 2 0 23 0;
#X connect 3 0 0 1;
#X connect 3 0 2 0;
#X connect 8 0 23 0;
#X connect 9 0 8 0;
#X connect 15 0 17 0;
#X connect 15 0 18 0;
#X connect 16 0 15 0;
#X connect 16 1 23 0;
#X connect 16 2 3 0;
#X connect 19 0 13 0;
#X connect 20 0 1 1;
#X connect 22 0 16 0;
#X connect 23 0 0 0;
#X connect 23 1 20 0;
#X restore 47 426 pd dumping_all_contours_in_one_unique_table;
#X text 439 210 change the max nb of points written in array for each
contour.The table output of Contours with more points than maxpoint
will be truncated;
#X msg 336 219 maxpoints 67;
#X connect 3 0 6 0;
#X connect 6 0 1 0;
#X connect 6 1 0 0;
#X connect 8 0 6 0;
#X connect 9 0 6 0;
#X connect 10 0 12 0;
#X connect 12 0 6 0;
#X connect 13 0 6 0;
#X connect 14 0 6 0;
#X connect 19 0 6 0;
#X connect 21 0 3 0;
#X connect 22 0 6 0;
#X connect 26 0 6 0;
#X restore 213 545 pd writing_output_in_tables;
#X floatatom 822 373 5 0 0 0 Nb_of_points - -, f 5;
#X text 746 388 (for current contour);
#N canvas 1 56 450 300 biggest 0;
#X obj 129 36 inlet;
#X obj 164 120 cvContoursFeatures Area;
#X obj 87 156 cvSortContours 1;
#X obj 118 85 t a a a;
#X obj 87 181 outlet biggest_contour;
#X obj 291 187 outlet all_contours;
#X text 211 142 keep only biggest contour;
#X connect 0 0 3 0;
#X connect 1 0 2 1;
#X connect 2 0 4 0;
#X connect 3 0 2 0;
#X connect 3 1 1 0;
#X connect 3 2 5 0;
#X restore 589 179 pd biggest / all contours;
#X obj 761 204 s all_contours;
#X obj 589 203 s biggest_contour;
#X obj 555 254 r biggest_contour;
#N canvas 1 56 541 319 draw_individual_points 0;
#X floatatom 330 71 5 0 0 0 index - -, f 5;
#X floatatom 333 96 5 0 0 0 x - -, f 5;
#X floatatom 331 116 5 0 0 0 y - -, f 5;
#X obj 158 83 loadbang;
#X obj 330 43 unpack f f f;
#X obj 65 230 cvDrawCircle;
#X msg 110 131 color 255 0 0 \, width -1, f 15;
#X msg 219 196 7;
#X obj 66 25 inlet;
#X obj 65 255 outlet;
#X obj 328 17 inlet points;
#X connect 3 0 6 0;
#X connect 3 0 7 0;
#X connect 4 0 0 0;
#X connect 4 1 5 1;
#X connect 4 1 1 0;
#X connect 4 2 5 2;
#X connect 4 2 2 0;
#X connect 5 0 9 0;
#X connect 6 0 5 0;
#X connect 7 0 5 3;
#X connect 8 0 5 0;
#X connect 10 0 4 0;
#X restore 462 520 pd draw_individual_points;
#X text 723 435 bangs when all points of current contour have been
given, f 31;
#X text 94 187 <tab_x> <tab_y> <size>;
#X obj 25 498 cvContoursPoints buf-x buf-y 67;
#X text 19 167 Arguments: <size>;
#X text 274 166 (mode : points output);
#X text 274 186 (mode : table output);
#X obj 8 0 cnv 15 240 60 empty empty cvContoursPoints 20 30 0 20 -4034
-66577 0;
#X msg 58 300 normalize 640 480;
#X text 61 546 more details here ->;
#X obj 33 427 s \$0-params;
#X obj 731 296 r \$0-params;
#X text 200 298 normalize points according to;
#X text 25 216 * points output mode : one arg = max nmb of output pooints
;
#X text 24 275 METHODS :;
#X text 188 334 (0 values cancel normalization);
#X text 217 314 given image dimension in pixel;
#X obj 38 241 cvContoursPoints 100;
#X text 260 491 maxpoints per contour;
#X text 16 475 * table output mode : three args : tab-x \, tab-y \,
;
#X text 331 496 ___________;
#X text 197 368 change the specified max nb of outputted points for
each contour, f 33;
#X msg 87 371 maxpoints 67;
#X connect 5 0 6 0;
#X connect 6 0 5 0;
#X connect 10 0 19 0;
#X connect 11 0 18 0;
#X connect 11 0 25 0;
#X connect 12 0 11 0;
#X connect 13 0 20 0;
#X connect 16 0 21 0;
#X connect 16 1 38 0;
#X connect 17 0 42 0;
#X connect 18 0 19 0;
#X connect 19 0 20 0;
#X connect 20 0 16 0;
#X connect 21 0 17 0;
#X connect 22 0 17 0;
#X connect 23 0 22 0;
#X connect 24 0 17 1;
#X connect 24 1 27 0;
#X connect 25 0 20 1;
#X connect 27 0 28 0;
#X connect 27 1 36 0;
#X connect 28 0 29 0;
#X connect 28 1 42 1;
#X connect 31 0 24 0;
#X connect 32 0 33 0;
#X connect 38 0 40 0;
#X connect 38 1 39 0;
#X connect 41 0 31 0;
#X connect 42 0 32 0;
#X connect 50 0 52 0;
#X connect 53 0 27 0;
#X connect 64 0 52 0;
