#N canvas 612 260 973 632 12;
#X declare -lib pix_opencv;
#X declare -lib cvlib;
#X obj 10 213 cnv 15 430 380 empty empty empty 20 12 0 14 -228856 -66577
0;
#X obj 10 167 cnv 15 430 40 empty empty empty 20 12 0 14 -195568 -66577
0;
#X obj 9 71 cnv 15 430 90 empty empty empty 20 12 0 14 -228856 -66577
0;
#X obj 445 73 cnv 15 500 520 empty empty empty 20 12 0 14 -228992 -66577
0;
#X obj 714 517 cnv 15 220 70 empty empty empty 20 12 0 14 -195568 -66577
0;
#N canvas 3 81 454 304 gemwin 0;
#X obj 67 89 outlet;
#X obj 67 10 inlet;
#X obj 65 41 route create;
#X msg 67 70 set destroy;
#X msg 182 68 set create;
#N canvas 87 154 247 179 Gem.init 0;
#X obj 118 46 loadbang;
#X msg 118 81 reset;
#X obj 118 113 outlet;
#X connect 0 0 1 0;
#X connect 1 0 2 0;
#X restore 289 80 pd Gem.init;
#X obj 162 241 gemwin;
#X msg 342 184 destroy;
#X msg 283 161 frame 25;
#X obj 164 126 t b b b;
#X msg 161 189 dimen 640 560 \, create \, 1;
#X connect 1 0 2 0;
#X connect 2 0 3 0;
#X connect 2 0 9 0;
#X connect 2 1 4 0;
#X connect 2 1 7 0;
#X connect 3 0 0 0;
#X connect 4 0 0 0;
#X connect 7 0 6 0;
#X connect 8 0 6 0;
#X connect 9 0 10 0;
#X connect 9 2 8 0;
#X connect 10 0 6 0;
#X restore 724 563 pd gemwin;
#X msg 724 543 create;
#X text 722 523 Create window and render;
#X obj 658 326 cnv 15 250 130 empty empty empty 20 12 0 14 -4034 -66577
0;
#X obj 249 0 cnv 15 700 60 empty empty CVLIB:OpenCV_with_Pure_Data
20 30 0 30 -219146 -66577 0;
#X obj 542 76 gemhead;
#X obj 745 96 delay 100;
#X obj 746 73 loadbang;
#X msg 492 84 set;
#X text 452 92 reset background, f 10;
#X obj 677 336 cnv 15 200 40 empty empty empty 20 12 0 14 -262130 -66577
0;
#X obj 542 155 cvFindContours;
#X obj 462 495 cvDrawContours;
#X msg 615 79 colorspace Grey;
#X obj 542 107 pix_video;
#X obj 542 131 pix_opencv_bgsubstract;
#X obj 462 201 pix_rgba;
#X msg 473 442 color 0 255 0 \, thickness 2, f 15;
#X obj 492 403 loadbang;
#X obj 557 316 t a a;
#X msg 692 105 49;
#X obj 687 411 route bang;
#X obj 672 435 bng 15 250 50 0 empty empty done 17 7 0 10 -262144 -1
-1;
#X obj 556 281 cvApproxContours 0.01;
#X obj 462 546 pix_texture;
#X obj 462 569 rectangle 5.333 4;
#X text 16 80 Description:;
#X floatatom 894 374 5 0 0 0 Nb_of_found_convexity_defects - -, f
5;
#X text 740 386 (for current contour);
#N canvas 1 56 450 300 biggest 0;
#X obj 129 36 inlet;
#X obj 164 120 cvContoursFeatures Area;
#X obj 87 156 cvSortContours 1;
#X obj 118 85 t a a a;
#X obj 87 181 outlet biggest_contour;
#X obj 291 187 outlet all_contours;
#X text 211 142 keep only biggest contour;
#X connect 0 0 3 0;
#X connect 1 0 2 1;
#X connect 2 0 4 0;
#X connect 3 0 2 0;
#X connect 3 1 1 0;
#X connect 3 2 5 0;
#X restore 589 179 pd biggest / all contours;
#X obj 761 204 s all_contours;
#X obj 589 203 s biggest_contour;
#X obj 555 254 r biggest_contour;
#X obj 8 0 cnv 15 240 60 empty empty cvContoursConvexityDefects 2 30
0 15 -4034 -66577 0;
#X text 723 435 bangs when all convDefct. points of current contour
have been given, f 31;
#N canvas 1 56 541 319 draw_individual_Defect_points 0;
#X floatatom 330 71 5 0 0 0 index - -, f 5;
#X floatatom 333 96 5 0 0 0 x - -, f 5;
#X floatatom 331 116 5 0 0 0 y - -, f 5;
#X obj 158 83 loadbang;
#X obj 330 43 unpack f f f;
#X obj 65 230 cvDrawCircle;
#X msg 110 131 color 255 0 0 \, width -1, f 15;
#X msg 219 196 7;
#X obj 66 25 inlet;
#X obj 65 255 outlet;
#X obj 328 17 inlet points;
#X connect 3 0 6 0;
#X connect 3 0 7 0;
#X connect 4 0 0 0;
#X connect 4 1 5 1;
#X connect 4 1 1 0;
#X connect 4 2 5 2;
#X connect 4 2 2 0;
#X connect 5 0 9 0;
#X connect 6 0 5 0;
#X connect 7 0 5 3;
#X connect 8 0 5 0;
#X connect 10 0 4 0;
#X restore 462 520 pd draw_individual_Defect_points;
#X obj 758 274 r \$0-params;
#X obj 27 560 s \$0-params;
#X msg 71 312 margin \$1;
#X obj 112 276 hsl 128 15 0 127 0 1 empty empty empty -2 -8 0 10 -262144
-1 -1 7000 1;
#X floatatom 71 272 5 0 0 0 - - -, f 5;
#X obj 100 381 tgl 15 0 empty empty empty 17 7 0 10 -262144 -1 -1 0
1;
#X text 164 401 0 = using cvConvexityDefects method;
#X text 165 423 1 = using cvConvexHull to find;
#X text 212 444 non-convex points of contour;
#X text 161 302 bypass all candidates that;
#X text 162 318 are too narrow from convex contour;
#X text 207 467 this method is a bit more permissive;
#X msg 78 417 method \$1;
#X text 128 378 convexity searching method (default= 0);
#X obj 772 6 declare -lib pix_opencv;
#X obj 772 31 declare -lib cvlib;
#X obj 744 143 cvContoursConvexityDefects;
#X obj 687 348 cvlib_contours_convexity_defects 5;
#X floatatom 82 486 5 1 200 0 - - -, f 5;
#X text 213 525 max nb of defects to output;
#X text 19 167 Arguments: max nb of defect to output (default 200)
;
#X msg 81 527 maxpoints \$1;
#X connect 5 0 6 0;
#X connect 6 0 5 0;
#X connect 10 0 19 0;
#X connect 11 0 18 0;
#X connect 11 0 25 0;
#X connect 12 0 11 0;
#X connect 13 0 20 0;
#X connect 16 0 21 0;
#X connect 16 1 34 0;
#X connect 17 0 40 0;
#X connect 18 0 19 0;
#X connect 19 0 20 0;
#X connect 20 0 16 0;
#X connect 21 0 17 0;
#X connect 22 0 17 0;
#X connect 23 0 22 0;
#X connect 24 0 17 1;
#X connect 24 1 58 0;
#X connect 25 0 20 1;
#X connect 26 0 27 0;
#X connect 26 1 40 1;
#X connect 28 0 24 0;
#X connect 29 0 30 0;
#X connect 34 0 36 0;
#X connect 34 1 35 0;
#X connect 37 0 28 0;
#X connect 40 0 29 0;
#X connect 41 0 58 0;
#X connect 43 0 42 0;
#X connect 44 0 43 0;
#X connect 44 0 45 0;
#X connect 46 0 53 0;
#X connect 53 0 42 0;
#X connect 58 0 26 0;
#X connect 58 1 32 0;
#X connect 59 0 62 0;
#X connect 62 0 42 0;
