#N canvas 201 56 863 661 12;
#X obj 153 8 inlet;
#X obj 147 74 cvContoursInterpolPoints \$1;
#X obj 143 183 cvContoursPoints \$0-src_re \$0-src_im \$1;
#X obj 509 417 tabread \$0-mag;
#X obj 98 612 outlet;
#X obj 541 308 until;
#X obj 539 280 f \$2;
#X obj 558 360 f;
#X obj 590 578 list;
#X obj 566 178 t b b b b b;
#X obj 282 577 list append;
#X obj 718 412 tabread \$0-mag;
#X obj 281 134 outlet;
#X obj 290 219 cvContoursFeature MinAreaRect;
#X obj 168 120 t a a;
#X obj 54 245 t b b;
#X obj 284 260 unpack f f;
#X obj 601 361 + 1;
#X msg 592 292 0;
#X msg 711 314 1;
#X obj 704 7 table \$0-src_re \$2;
#X obj 704 40 table \$0-src_im \$2;
#X obj 704 60 table \$0-dst_re \$2;
#X obj 705 89 table \$0-dst_im \$2;
#X obj 708 115 table \$0-mag \$2;
#X obj 710 144 table \$0-arg \$2;
#X obj 498 504 list prepend;
#X obj 35 417 iem_tab/tab_carth2polar \$0-dst_re \$0-dst_im \$0-mag
\$0-arg;
#X obj 41 390 iem_tab/tab_fft \$0-src_re \$0-src_im \$0-dst_re \$0-dst_im
\$2;
#X connect 0 0 1 0;
#X connect 1 0 14 0;
#X connect 1 0 2 0;
#X connect 2 0 15 0;
#X connect 3 0 26 0;
#X connect 5 0 7 0;
#X connect 6 0 5 0;
#X connect 7 0 3 0;
#X connect 7 0 17 0;
#X connect 8 0 26 1;
#X connect 9 0 10 0;
#X connect 9 1 6 0;
#X connect 9 2 18 0;
#X connect 9 3 8 0;
#X connect 9 4 19 0;
#X connect 10 0 4 0;
#X connect 13 0 16 0;
#X connect 15 0 28 0;
#X connect 17 0 7 1;
#X connect 18 0 7 1;
#X connect 19 0 11 0;
#X connect 26 0 8 0;
#X connect 26 0 10 1;
#X connect 27 0 9 0;
#X connect 28 0 27 0;
