#N canvas 271 56 946 731 12;
#X declare -lib pix_opencv;
#X declare -lib cvlib;
#X obj 19 10 cnv 15 700 60 empty empty CVLIB:OpenCV_with_Pure_Data
20 30 0 30 -219146 -66577 0;
#X obj 632 189 gemhead;
#X obj 631 215 pix_video;
#X obj 700 507 gemwin;
#X msg 819 474 destroy;
#X msg 634 473 dimen 320 240 \, create \, 1;
#X text 39 466 By choosing multiple arguments \, you get multiple outlets.
This is usefull when applying complex criterias on contours;
#X text 74 143 * inlet : cvContours <sid>;
#X floatatom 128 289 5 0 0 0 Contours_Area - -, f 5;
#X text 37 349 Arguments may be choosen in the following list (case
sensitive) :;
#X text 480 490 example 1 :;
#X obj 629 278 pix_gray;
#X obj 626 329 cvFindContours;
#X text 138 386 Area BoundingRect Flags HuMoments LogHuMoments IsConvex
MinAreaRect Perimeter SegmentCount;
#X obj 740 278 pix_info;
#X obj 746 326 s pix_width;
#X obj 754 304 s pix_height;
#X text 33 698 * SEE ALSO :;
#N canvas 471 165 355 346 ShowImage 0;
#X obj 92 105 inlet;
#X obj 184 107 inlet;
#X obj 169 143 tgl 15 0 empty empty empty 17 7 0 10 -262144 -1 -1 1
1;
#X obj 92 160 spigot;
#X obj 89 190 pix_texture;
#X obj 90 222 translateXYZ 0 0 -0.01;
#X obj 83 252 rectangle 5.333 4;
#X connect 0 0 3 0;
#X connect 1 0 2 0;
#X connect 2 0 3 1;
#X connect 3 0 4 0;
#X connect 4 0 5 0;
#X connect 5 0 6 0;
#X restore 845 277 pd ShowImage;
#X obj 924 251 tgl 15 1 empty empty empty 17 7 0 10 -262144 -1 -1 1
1;
#X obj 629 238 t a a a;
#X obj 676 356 cvApproxContours;
#X obj 130 698 cvRouteContours 1;
#X text 33 81 cvContoursFeatures: get feature(s) specified as argument(s)
for each contour;
#X obj 700 87 declare -lib pix_opencv;
#X floatatom 733 224 5 0 0 0 - - -, f 5;
#X obj 555 303 pix_opencv_athreshold 51;
#X obj 676 405 s contours;
#X text 560 410 * FEATURES;
#N canvas 1 56 450 300 features 0;
#N canvas 801 352 593 458 MinAreaRect 0;
#X floatatom 301 256 5 0 0 0 center(x) - -, f 5;
#X floatatom 300 281 5 0 0 0 center(y) - -, f 5;
#X floatatom 300 307 5 0 0 0 width - -, f 5;
#X floatatom 297 357 5 0 0 0 angle - -, f 5;
#X floatatom 299 332 5 0 0 0 height - -, f 5;
#X obj 301 223 unpack f f f f f;
#X text 348 356 (angle in degrees);
#X obj 25 45 r contours;
#X obj 25 87 spigot;
#X obj 64 64 tgl 15 0 empty empty empty 17 7 0 10 -262144 -1 -1 0 1
;
#X obj 233 156 t l l;
#N canvas 1 56 578 529 draw_min_area_rects 0;
#X obj 274 55 inlet;
#X obj 150 245 gemhead;
#X msg 76 215 0;
#X obj 64 174 loadbang;
#X obj 220 328 translateXYZ;
#X obj 248 219 - 320;
#X obj 248 273 * 5.666;
#X obj 311 219 - 240;
#X obj 369 270 * 5.666;
#X obj 429 269 * 4;
#X obj 320 464 rectangle;
#X obj 252 383 rotateXYZ;
#X obj 306 272 * 4;
#X obj 488 236 * -1;
#X obj 487 271 + 90;
#X msg 118 362 draw line;
#X obj 125 338 loadbang;
#X obj 269 153 t b f;
#X obj 274 109 unpack f f f f f;
#X obj 368 242 / 640;
#X obj 429 242 / 480;
#X obj 249 245 / 320;
#X obj 306 245 / 240;
#X obj 483 66 r pix_height;
#X obj 445 33 r pix_width;
#X obj 417 72 * 0.5;
#X obj 465 102 * 0.5;
#X obj 252 408 color 0 1 0;
#X connect 0 0 18 0;
#X connect 1 0 4 0;
#X connect 2 0 1 0;
#X connect 3 0 2 0;
#X connect 4 0 11 0;
#X connect 5 0 21 0;
#X connect 6 0 4 1;
#X connect 7 0 22 0;
#X connect 8 0 10 1;
#X connect 9 0 10 2;
#X connect 11 0 27 0;
#X connect 12 0 4 2;
#X connect 13 0 14 0;
#X connect 14 0 11 3;
#X connect 15 0 10 0;
#X connect 16 0 15 0;
#X connect 17 0 1 0;
#X connect 17 1 5 0;
#X connect 18 0 17 0;
#X connect 18 1 7 0;
#X connect 18 2 19 0;
#X connect 18 3 20 0;
#X connect 18 4 13 0;
#X connect 19 0 8 0;
#X connect 20 0 9 0;
#X connect 21 0 6 0;
#X connect 22 0 12 0;
#X connect 23 0 26 0;
#X connect 23 0 20 1;
#X connect 24 0 25 0;
#X connect 24 0 19 1;
#X connect 25 0 5 1;
#X connect 25 0 21 1;
#X connect 26 0 7 1;
#X connect 26 0 22 1;
#X connect 27 0 10 0;
#X restore 233 180 pd draw_min_area_rects;
#X obj 25 111 cvContoursFeatures MinAreaRect;
#X connect 5 0 0 0;
#X connect 5 1 1 0;
#X connect 5 2 2 0;
#X connect 5 3 4 0;
#X connect 5 4 3 0;
#X connect 7 0 8 0;
#X connect 8 0 12 0;
#X connect 9 0 8 1;
#X connect 10 0 11 0;
#X connect 10 1 5 0;
#X connect 12 0 10 0;
#X restore 26 207 pd MinAreaRect;
#N canvas 741 217 614 432 BoundingRect 0;
#X floatatom 293 270 5 0 0 0 x_min - -, f 5;
#X floatatom 292 295 5 0 0 0 y_min - -, f 5;
#X floatatom 292 321 5 0 0 0 width - -, f 5;
#X floatatom 291 346 5 0 0 0 height - -, f 5;
#X obj 45 25 r contours;
#X obj 45 87 spigot;
#X obj 84 64 tgl 15 0 empty empty empty 17 7 0 10 -262144 -1 -1 0 1
;
#X obj 259 171 t l l;
#N canvas 567 56 578 529 draw_bounding_rects 0;
#X obj 274 55 inlet;
#X obj 150 275 gemhead;
#X msg 76 245 0;
#X obj 64 204 loadbang;
#X obj 220 358 translateXYZ;
#X obj 249 220 - 320;
#X obj 248 303 * 5.666;
#X obj 309 219 - 240;
#X obj 363 306 * 5.666;
#X obj 430 303 * 4;
#X obj 320 494 rectangle;
#X obj 309 303 * 4;
#X msg 118 392 draw line;
#X obj 125 368 loadbang;
#X obj 217 123 t b f;
#X obj 363 219 / 640;
#X obj 429 246 / 480;
#X obj 249 249 / 320;
#X obj 309 246 / 240;
#X obj 342 159 r pix_height;
#X obj 281 133 r pix_width;
#X obj 281 188 * 0.5;
#X obj 342 189 * 0.5;
#X obj 278 95 unpack f f f f;
#X obj 248 275 +;
#X obj 309 274 +;
#X obj 395 195 r pix_width;
#X obj 460 221 r pix_height;
#X obj 229 398 color 1 0 0;
#X connect 0 0 23 0;
#X connect 1 0 4 0;
#X connect 2 0 1 0;
#X connect 3 0 2 0;
#X connect 4 0 28 0;
#X connect 5 0 17 0;
#X connect 6 0 4 1;
#X connect 7 0 18 0;
#X connect 8 0 10 1;
#X connect 9 0 10 2;
#X connect 11 0 4 2;
#X connect 12 0 10 0;
#X connect 13 0 12 0;
#X connect 14 0 1 0;
#X connect 14 1 5 0;
#X connect 15 0 8 0;
#X connect 15 0 24 1;
#X connect 16 0 9 0;
#X connect 16 0 25 1;
#X connect 17 0 24 0;
#X connect 18 0 25 0;
#X connect 19 0 22 0;
#X connect 20 0 21 0;
#X connect 21 0 5 1;
#X connect 21 0 17 1;
#X connect 22 0 7 1;
#X connect 22 0 18 1;
#X connect 23 0 14 0;
#X connect 23 1 7 0;
#X connect 23 2 15 0;
#X connect 23 3 16 0;
#X connect 24 0 6 0;
#X connect 25 0 11 0;
#X connect 26 0 15 1;
#X connect 27 0 16 1;
#X connect 28 0 10 0;
#X restore 54 235 pd draw_bounding_rects;
#X obj 292 237 unpack f f f f;
#X obj 45 111 cvContoursFeatures BoundingRect;
#X connect 4 0 5 0;
#X connect 5 0 10 0;
#X connect 6 0 5 1;
#X connect 7 0 8 0;
#X connect 7 1 9 0;
#X connect 9 0 0 0;
#X connect 9 1 1 0;
#X connect 9 2 2 0;
#X connect 9 3 3 0;
#X connect 10 0 7 0;
#X restore 27 181 pd BoundingRect;
#N canvas 577 68 638 391 HuMoments/LogHuMoments 0;
#X obj 62 144 unpack f f f f f f f;
#X floatatom 62 175 8 0 0 0 h1 - -, f 8;
#X floatatom 62 196 8 0 0 0 h2 - -, f 8;
#X floatatom 62 217 8 0 0 0 h3 - -, f 8;
#X floatatom 62 238 8 0 0 0 h4 - -, f 8;
#X floatatom 62 259 8 0 0 0 h5 - -, f 8;
#X floatatom 62 280 8 0 0 0 h6 - -, f 8;
#X floatatom 62 301 8 0 0 0 h7 - -, f 8;
#X obj 65 15 r contours;
#X obj 65 77 spigot;
#X obj 104 54 tgl 15 0 empty empty empty 17 7 0 10 -262144 -1 -1 0
1;
#X obj 279 151 unpack f f f f f f f;
#X floatatom 279 182 8 0 0 0 log_h1 - -, f 8;
#X floatatom 279 203 8 0 0 0 log_h2 - -, f 8;
#X floatatom 279 224 8 0 0 0 log_h3 - -, f 8;
#X floatatom 279 245 8 0 0 0 log_h4 - -, f 8;
#X floatatom 279 266 8 0 0 0 log_h5 - -, f 8;
#X floatatom 279 287 8 0 0 0 log_h6 - -, f 8;
#X floatatom 279 308 8 0 0 0 log_h7 - -, f 8;
#X text 235 23 get hu moments for each contour;
#X text 357 67 i;
#X text 407 66 i;
#X text 491 66 i;
#X text 324 58 log_h =sgn(h )*log(abs(h ));
#X obj 163 359 cvHuCompare;
#X text 71 358 * SEE ALSO :;
#X obj 66 104 cvContoursFeatures HuMoments LogHuMoments;
#X connect 0 0 1 0;
#X connect 0 1 2 0;
#X connect 0 2 3 0;
#X connect 0 3 4 0;
#X connect 0 4 5 0;
#X connect 0 5 6 0;
#X connect 0 6 7 0;
#X connect 8 0 9 0;
#X connect 9 0 26 0;
#X connect 10 0 9 1;
#X connect 11 0 12 0;
#X connect 11 1 13 0;
#X connect 11 2 14 0;
#X connect 11 3 15 0;
#X connect 11 4 16 0;
#X connect 11 5 17 0;
#X connect 11 6 18 0;
#X connect 26 0 0 0;
#X connect 26 1 11 0;
#X restore 26 232 pd HuMoments/LogHuMoments;
#N canvas 741 189 314 427 IsConvex 0;
#X obj 25 45 r contours;
#X obj 25 107 spigot;
#X obj 64 84 tgl 15 0 empty empty empty 17 7 0 10 -262144 -1 -1 0 1
;
#X obj 26 233 cvRouteContours 1;
#N canvas 1 56 578 529 draw_min_area_rects 0;
#X obj 274 55 inlet;
#X obj 150 245 gemhead;
#X msg 76 215 0;
#X obj 64 174 loadbang;
#X obj 220 328 translateXYZ;
#X obj 248 219 - 320;
#X obj 248 273 * 5.666;
#X obj 311 219 - 240;
#X obj 369 270 * 5.666;
#X obj 429 269 * 4;
#X obj 320 464 rectangle;
#X obj 252 383 rotateXYZ;
#X obj 306 272 * 4;
#X obj 488 236 * -1;
#X obj 487 271 + 90;
#X msg 118 362 draw line;
#X obj 125 338 loadbang;
#X obj 269 153 t b f;
#X obj 274 109 unpack f f f f f;
#X obj 368 242 / 640;
#X obj 429 242 / 480;
#X obj 249 245 / 320;
#X obj 306 245 / 240;
#X obj 483 66 r pix_height;
#X obj 445 33 r pix_width;
#X obj 417 72 * 0.5;
#X obj 465 102 * 0.5;
#X obj 146 291 color 1 0 0;
#X connect 0 0 18 0;
#X connect 1 0 27 0;
#X connect 2 0 1 0;
#X connect 3 0 2 0;
#X connect 4 0 11 0;
#X connect 5 0 21 0;
#X connect 6 0 4 1;
#X connect 7 0 22 0;
#X connect 8 0 10 1;
#X connect 9 0 10 2;
#X connect 11 0 10 0;
#X connect 12 0 4 2;
#X connect 13 0 14 0;
#X connect 14 0 11 3;
#X connect 15 0 10 0;
#X connect 16 0 15 0;
#X connect 17 0 1 0;
#X connect 17 1 5 0;
#X connect 18 0 17 0;
#X connect 18 1 7 0;
#X connect 18 2 19 0;
#X connect 18 3 20 0;
#X connect 18 4 13 0;
#X connect 19 0 8 0;
#X connect 20 0 9 0;
#X connect 21 0 6 0;
#X connect 22 0 12 0;
#X connect 23 0 26 0;
#X connect 23 0 20 1;
#X connect 24 0 25 0;
#X connect 24 0 19 1;
#X connect 25 0 5 1;
#X connect 25 0 21 1;
#X connect 26 0 7 1;
#X connect 26 0 22 1;
#X connect 27 0 4 0;
#X restore 25 322 pd draw_min_area_rects;
#X obj 25 156 t a a;
#X obj 105 200 cvContoursFeatures IsConvex;
#X obj 22 272 cvContoursFeatures MinAreaRect;
#X connect 0 0 1 0;
#X connect 1 0 5 0;
#X connect 2 0 1 1;
#X connect 3 0 7 0;
#X connect 5 0 3 0;
#X connect 5 1 6 0;
#X connect 6 0 3 1;
#X connect 7 0 4 0;
#X restore 27 144 pd IsConvex;
#N canvas 741 133 314 427 SegmentCount 0;
#X obj 65 45 r contours;
#X obj 65 107 spigot;
#X obj 104 84 tgl 15 0 empty empty empty 17 7 0 10 -262144 -1 -1 0
1;
#X floatatom 181 203 5 0 0 0 Segment_Count - -, f 5;
#X obj 66 149 cvContoursFeatures SegmentCount;
#X connect 0 0 1 0;
#X connect 1 0 4 0;
#X connect 2 0 1 1;
#X connect 4 0 3 0;
#X restore 27 88 pd SegmentCount;
#N canvas 741 133 314 427 Area 0;
#X obj 55 45 r contours;
#X obj 55 107 spigot;
#X obj 94 84 tgl 15 0 empty empty empty 17 7 0 10 -262144 -1 -1 0 1
;
#X floatatom 160 205 5 0 0 0 Contours_Area - -, f 5;
#X obj 56 149 cvContoursFeatures Area;
#X connect 0 0 1 0;
#X connect 1 0 4 0;
#X connect 2 0 1 1;
#X connect 4 0 3 0;
#X restore 27 35 pd Area;
#N canvas 741 133 302 409 Perimeter 0;
#X obj 57 37 r contours;
#X obj 57 99 spigot;
#X obj 96 76 tgl 15 0 empty empty empty 17 7 0 10 -262144 -1 -1 0 1
;
#X floatatom 210 215 5 0 0 0 perimeter - -, f 5;
#X obj 58 141 cvContoursFeatures Perimeter;
#X connect 0 0 1 0;
#X connect 1 0 4 0;
#X connect 2 0 1 1;
#X connect 4 0 3 0;
#X restore 25 60 pd Perimeter;
#N canvas 741 133 314 427 IsHole 0;
#X obj 55 55 r contours;
#X obj 55 117 spigot;
#X obj 94 94 tgl 15 0 empty empty empty 17 7 0 10 -262144 -1 -1 0 1
;
#X obj 62 204 tgl 15 0 empty empty empty 17 7 0 10 -262144 -1 -1 0
1;
#X obj 56 159 cvContoursFeatures IsHole;
#X connect 0 0 1 0;
#X connect 1 0 4 0;
#X connect 2 0 1 1;
#X connect 4 0 3 0;
#X restore 26 116 pd IsHole;
#X restore 148 569 pd features;
#X obj 566 690 cvContoursFeature;
#X obj 106 244 cnv 15 200 40 empty empty empty 20 12 0 14 -262130 -66577
0;
#X obj 126 254 cvContoursFeatures Area;
#X obj 127 230 r contours;
#X text 74 171 * outlet(s) give feature(s) specified by creation argument(s).
;
#X obj 50 509 cvContoursFeatures Area Perimeter;
#X text 40 571 Click here -->;
#X text 452 688 old name :;
#X obj 701 113 declare -lib cvlib;
#X connect 1 0 2 0;
#X connect 2 0 20 0;
#X connect 4 0 3 0;
#X connect 5 0 3 0;
#X connect 11 0 26 0;
#X connect 12 1 21 0;
#X connect 14 1 15 0;
#X connect 14 2 16 0;
#X connect 19 0 18 1;
#X connect 20 0 11 0;
#X connect 20 1 14 0;
#X connect 20 2 18 0;
#X connect 21 0 27 0;
#X connect 25 0 26 2;
#X connect 26 0 12 0;
#X connect 32 0 8 0;
#X connect 33 0 32 0;
