#N canvas 539 90 919 572 12;
#X declare -lib pix_opencv;
#X obj 585 227 gemwin;
#X msg 581 177 destroy;
#X obj 19 3 cnv 15 700 60 empty empty CVLIB:OpenCV_with_Pure_Data 20
30 0 30 -219146 -66577 0;
#X text 475 198 click here ->;
#X obj 284 204 pix_video;
#X obj 282 146 gemhead;
#X msg 351 141 colorspace grey;
#X msg 352 167 colorspace RGBA;
#X msg 326 375 width \$1;
#X msg 733 371 color \$1 \$2 \$3;
#X floatatom 112 281 5 0 0 0 x - -, f 5;
#X floatatom 136 312 5 0 0 0 y - -, f 5;
#X floatatom 170 339 5 0 0 0 r - -, f 5;
#X floatatom 325 352 5 -1 255 0 - - -, f 5;
#X msg 784 310 0 255 0;
#X text 408 333 max = 255;
#X text 407 369 fill = -1;
#X msg 783 286 255 0 0;
#X msg 784 338 0 0 255;
#X text 405 351 default = 1;
#X text 700 263 Color (RGB \, 0-255);
#X obj 75 216 pix_rgba;
#X msg 583 195 dimen 1 1 \, create \, 1;
#X text 25 73 cvDrawCircle : circle drawing function (implementation
of cvCircle function), f 78;
#X obj 588 22 cvlib-overview;
#X obj 91 312 f;
#X msg 103 415 add_circle \$1 \$2 \$3;
#X obj 103 376 pack f f f;
#X obj 629 124 declare -lib pix_opencv;
#X text 268 335 Width (thickness);
#X text 22 120 Beware : works in pix domain \, please consider using
this function only for debugging purposes;
#X text 28 97 Draws one or more circles on incoming pix data;
#X text 405 246 position / radius;
#X obj 23 340 t a a;
#X obj 24 527 cvShowImage after 200 100;
#X msg 230 300 clear;
#X obj 183 463 cvDrawCircles;
#X obj 818 493 cvDrawCircle;
#X text 574 493 cvDrawCircles replaces old object;
#X obj 185 492 cvShowImage cvDrawCircles 320 240;
#X msg 471 461 vis 0;
#X msg 480 513 vis 1;
#X obj 75 241 t a b b;
#X text 280 297 erase list of objects to draw before image processing
;
#X connect 1 0 0 0;
#X connect 4 0 21 0;
#X connect 5 0 4 0;
#X connect 6 0 4 0;
#X connect 7 0 4 0;
#X connect 8 0 36 0;
#X connect 9 0 36 0;
#X connect 10 0 25 1;
#X connect 11 0 27 1;
#X connect 12 0 27 2;
#X connect 13 0 8 0;
#X connect 14 0 9 0;
#X connect 17 0 9 0;
#X connect 18 0 9 0;
#X connect 21 0 42 0;
#X connect 22 0 0 0;
#X connect 25 0 27 0;
#X connect 26 0 36 0;
#X connect 27 0 26 0;
#X connect 33 0 34 0;
#X connect 33 1 36 0;
#X connect 35 0 36 0;
#X connect 36 0 39 0;
#X connect 40 0 39 0;
#X connect 41 0 39 0;
#X connect 42 0 33 0;
#X connect 42 1 25 0;
#X connect 42 2 35 0;
