#N canvas 0 0 1257 717 12;
#X obj 29 20 cnv 15 700 60 empty empty CVLIB:OpenCV_with_Pure_Data
20 30 0 30 -219146 -66577 0;
#X text 37 139 1) click here ------------------>;
#X obj 54 207 gemhead;
#X obj 53 239 pix_video;
#X obj 94 294 pix_gray;
#X obj 96 347 cvFindContours;
#X obj 277 172 gemwin;
#X msg 329 172 destroy;
#X msg 275 137 dimen 1 1 \, create \, 1;
#X obj 93 321 cvCanny 150 300 3;
#X obj 53 267 t a a;
#X obj 601 41 cvlib-overview;
#X text 49 88 cvForEachContour :;
#X obj 191 409 cvForEachContour;
#X connect 2 0 3 0;
#X connect 3 0 10 0;
#X connect 4 0 9 0;
#X connect 5 1 13 0;
#X connect 7 0 6 0;
#X connect 8 0 6 0;
#X connect 9 0 5 0;
#X connect 10 1 4 0;
