#N canvas 0 0 1257 717 12;
#X obj 44 51 inlet;
#X obj 30 656 outlet;
#N canvas 0 0 450 300 cvRouteContours_8_cell 0;
#X obj 54 61 inlet;
#X obj 86 130 t a b;
#X obj 57 202 cvRouteContours 1 2 3 4 5 6 7 8;
#X msg 123 169 1 2 3 4 5 6 7 8;
#X obj 258 367 outlet;
#X obj 72 368 outlet;
#X connect 0 0 1 0;
#X connect 1 0 2 0;
#X connect 1 1 3 0;
#X connect 2 0 5 0;
#X connect 2 1 5 0;
#X connect 2 2 5 0;
#X connect 2 3 5 0;
#X connect 2 4 5 0;
#X connect 2 5 5 0;
#X connect 2 6 5 0;
#X connect 2 7 5 0;
#X connect 2 8 4 0;
#X connect 3 0 2 1;
#X restore 43 101 pd cvRouteContours_8_cell;
#N canvas 0 0 450 300 cvRouteContours_8_cell 0;
#X obj 54 61 inlet;
#X obj 86 130 t a b;
#X obj 57 202 cvRouteContours 1 2 3 4 5 6 7 8;
#X msg 123 169 1 2 3 4 5 6 7 8;
#X obj 258 367 outlet;
#X obj 72 368 outlet;
#X connect 0 0 1 0;
#X connect 1 0 2 0;
#X connect 1 1 3 0;
#X connect 2 0 5 0;
#X connect 2 1 5 0;
#X connect 2 2 5 0;
#X connect 2 3 5 0;
#X connect 2 4 5 0;
#X connect 2 5 5 0;
#X connect 2 6 5 0;
#X connect 2 7 5 0;
#X connect 2 8 4 0;
#X connect 3 0 2 1;
#X restore 79 133 pd cvRouteContours_8_cell;
#N canvas 0 0 450 300 cvRouteContours_8_cell 0;
#X obj 54 61 inlet;
#X obj 86 130 t a b;
#X obj 57 202 cvRouteContours 1 2 3 4 5 6 7 8;
#X msg 123 169 1 2 3 4 5 6 7 8;
#X obj 258 367 outlet;
#X obj 72 368 outlet;
#X connect 0 0 1 0;
#X connect 1 0 2 0;
#X connect 1 1 3 0;
#X connect 2 0 5 0;
#X connect 2 1 5 0;
#X connect 2 2 5 0;
#X connect 2 3 5 0;
#X connect 2 4 5 0;
#X connect 2 5 5 0;
#X connect 2 6 5 0;
#X connect 2 7 5 0;
#X connect 2 8 4 0;
#X connect 3 0 2 1;
#X restore 120 165 pd cvRouteContours_8_cell;
#N canvas 0 0 450 300 cvRouteContours_8_cell 0;
#X obj 54 61 inlet;
#X obj 86 130 t a b;
#X obj 57 202 cvRouteContours 1 2 3 4 5 6 7 8;
#X msg 123 169 1 2 3 4 5 6 7 8;
#X obj 258 367 outlet;
#X obj 72 368 outlet;
#X connect 0 0 1 0;
#X connect 1 0 2 0;
#X connect 1 1 3 0;
#X connect 2 0 5 0;
#X connect 2 1 5 0;
#X connect 2 2 5 0;
#X connect 2 3 5 0;
#X connect 2 4 5 0;
#X connect 2 5 5 0;
#X connect 2 6 5 0;
#X connect 2 7 5 0;
#X connect 2 8 4 0;
#X connect 3 0 2 1;
#X restore 156 197 pd cvRouteContours_8_cell;
#N canvas 0 0 450 300 cvRouteContours_8_cell 0;
#X obj 54 61 inlet;
#X obj 86 130 t a b;
#X obj 57 202 cvRouteContours 1 2 3 4 5 6 7 8;
#X msg 123 169 1 2 3 4 5 6 7 8;
#X obj 258 367 outlet;
#X obj 72 368 outlet;
#X connect 0 0 1 0;
#X connect 1 0 2 0;
#X connect 1 1 3 0;
#X connect 2 0 5 0;
#X connect 2 1 5 0;
#X connect 2 2 5 0;
#X connect 2 3 5 0;
#X connect 2 4 5 0;
#X connect 2 5 5 0;
#X connect 2 6 5 0;
#X connect 2 7 5 0;
#X connect 2 8 4 0;
#X connect 3 0 2 1;
#X restore 201 232 pd cvRouteContours_8_cell;
#N canvas 0 0 450 300 cvRouteContours_8_cell 0;
#X obj 54 61 inlet;
#X obj 86 130 t a b;
#X obj 57 202 cvRouteContours 1 2 3 4 5 6 7 8;
#X msg 123 169 1 2 3 4 5 6 7 8;
#X obj 258 367 outlet;
#X obj 72 368 outlet;
#X connect 0 0 1 0;
#X connect 1 0 2 0;
#X connect 1 1 3 0;
#X connect 2 0 5 0;
#X connect 2 1 5 0;
#X connect 2 2 5 0;
#X connect 2 3 5 0;
#X connect 2 4 5 0;
#X connect 2 5 5 0;
#X connect 2 6 5 0;
#X connect 2 7 5 0;
#X connect 2 8 4 0;
#X connect 3 0 2 1;
#X restore 237 264 pd cvRouteContours_8_cell;
#N canvas 0 0 450 300 cvRouteContours_8_cell 0;
#X obj 54 61 inlet;
#X obj 86 130 t a b;
#X obj 57 202 cvRouteContours 1 2 3 4 5 6 7 8;
#X msg 123 169 1 2 3 4 5 6 7 8;
#X obj 258 367 outlet;
#X obj 72 368 outlet;
#X connect 0 0 1 0;
#X connect 1 0 2 0;
#X connect 1 1 3 0;
#X connect 2 0 5 0;
#X connect 2 1 5 0;
#X connect 2 2 5 0;
#X connect 2 3 5 0;
#X connect 2 4 5 0;
#X connect 2 5 5 0;
#X connect 2 6 5 0;
#X connect 2 7 5 0;
#X connect 2 8 4 0;
#X connect 3 0 2 1;
#X restore 278 296 pd cvRouteContours_8_cell;
#N canvas 0 0 450 300 cvRouteContours_8_cell 0;
#X obj 54 61 inlet;
#X obj 86 130 t a b;
#X obj 57 202 cvRouteContours 1 2 3 4 5 6 7 8;
#X msg 123 169 1 2 3 4 5 6 7 8;
#X obj 258 367 outlet;
#X obj 72 368 outlet;
#X connect 0 0 1 0;
#X connect 1 0 2 0;
#X connect 1 1 3 0;
#X connect 2 0 5 0;
#X connect 2 1 5 0;
#X connect 2 2 5 0;
#X connect 2 3 5 0;
#X connect 2 4 5 0;
#X connect 2 5 5 0;
#X connect 2 6 5 0;
#X connect 2 7 5 0;
#X connect 2 8 4 0;
#X connect 3 0 2 1;
#X restore 314 328 pd cvRouteContours_8_cell;
#N canvas 0 0 450 300 cvRouteContours_8_cell 0;
#X obj 54 61 inlet;
#X obj 86 130 t a b;
#X obj 57 202 cvRouteContours 1 2 3 4 5 6 7 8;
#X msg 123 169 1 2 3 4 5 6 7 8;
#X obj 258 367 outlet;
#X obj 72 368 outlet;
#X connect 0 0 1 0;
#X connect 1 0 2 0;
#X connect 1 1 3 0;
#X connect 2 0 5 0;
#X connect 2 1 5 0;
#X connect 2 2 5 0;
#X connect 2 3 5 0;
#X connect 2 4 5 0;
#X connect 2 5 5 0;
#X connect 2 6 5 0;
#X connect 2 7 5 0;
#X connect 2 8 4 0;
#X connect 3 0 2 1;
#X restore 392 368 pd cvRouteContours_8_cell;
#N canvas 0 0 450 300 cvRouteContours_8_cell 0;
#X obj 54 61 inlet;
#X obj 86 130 t a b;
#X obj 57 202 cvRouteContours 1 2 3 4 5 6 7 8;
#X msg 123 169 1 2 3 4 5 6 7 8;
#X obj 258 367 outlet;
#X obj 72 368 outlet;
#X connect 0 0 1 0;
#X connect 1 0 2 0;
#X connect 1 1 3 0;
#X connect 2 0 5 0;
#X connect 2 1 5 0;
#X connect 2 2 5 0;
#X connect 2 3 5 0;
#X connect 2 4 5 0;
#X connect 2 5 5 0;
#X connect 2 6 5 0;
#X connect 2 7 5 0;
#X connect 2 8 4 0;
#X connect 3 0 2 1;
#X restore 428 400 pd cvRouteContours_8_cell;
#N canvas 0 0 450 300 cvRouteContours_8_cell 0;
#X obj 54 61 inlet;
#X obj 86 130 t a b;
#X obj 57 202 cvRouteContours 1 2 3 4 5 6 7 8;
#X msg 123 169 1 2 3 4 5 6 7 8;
#X obj 258 367 outlet;
#X obj 72 368 outlet;
#X connect 0 0 1 0;
#X connect 1 0 2 0;
#X connect 1 1 3 0;
#X connect 2 0 5 0;
#X connect 2 1 5 0;
#X connect 2 2 5 0;
#X connect 2 3 5 0;
#X connect 2 4 5 0;
#X connect 2 5 5 0;
#X connect 2 6 5 0;
#X connect 2 7 5 0;
#X connect 2 8 4 0;
#X connect 3 0 2 1;
#X restore 469 432 pd cvRouteContours_8_cell;
#N canvas 0 0 450 300 cvRouteContours_8_cell 0;
#X obj 54 61 inlet;
#X obj 86 130 t a b;
#X obj 57 202 cvRouteContours 1 2 3 4 5 6 7 8;
#X msg 123 169 1 2 3 4 5 6 7 8;
#X obj 258 367 outlet;
#X obj 72 368 outlet;
#X connect 0 0 1 0;
#X connect 1 0 2 0;
#X connect 1 1 3 0;
#X connect 2 0 5 0;
#X connect 2 1 5 0;
#X connect 2 2 5 0;
#X connect 2 3 5 0;
#X connect 2 4 5 0;
#X connect 2 5 5 0;
#X connect 2 6 5 0;
#X connect 2 7 5 0;
#X connect 2 8 4 0;
#X connect 3 0 2 1;
#X restore 505 464 pd cvRouteContours_8_cell;
#N canvas 0 0 450 300 cvRouteContours_8_cell 0;
#X obj 54 61 inlet;
#X obj 86 130 t a b;
#X obj 57 202 cvRouteContours 1 2 3 4 5 6 7 8;
#X msg 123 169 1 2 3 4 5 6 7 8;
#X obj 258 367 outlet;
#X obj 72 368 outlet;
#X connect 0 0 1 0;
#X connect 1 0 2 0;
#X connect 1 1 3 0;
#X connect 2 0 5 0;
#X connect 2 1 5 0;
#X connect 2 2 5 0;
#X connect 2 3 5 0;
#X connect 2 4 5 0;
#X connect 2 5 5 0;
#X connect 2 6 5 0;
#X connect 2 7 5 0;
#X connect 2 8 4 0;
#X connect 3 0 2 1;
#X restore 550 499 pd cvRouteContours_8_cell;
#N canvas 0 0 450 300 cvRouteContours_8_cell 0;
#X obj 54 61 inlet;
#X obj 86 130 t a b;
#X obj 57 202 cvRouteContours 1 2 3 4 5 6 7 8;
#X msg 123 169 1 2 3 4 5 6 7 8;
#X obj 258 367 outlet;
#X obj 72 368 outlet;
#X connect 0 0 1 0;
#X connect 1 0 2 0;
#X connect 1 1 3 0;
#X connect 2 0 5 0;
#X connect 2 1 5 0;
#X connect 2 2 5 0;
#X connect 2 3 5 0;
#X connect 2 4 5 0;
#X connect 2 5 5 0;
#X connect 2 6 5 0;
#X connect 2 7 5 0;
#X connect 2 8 4 0;
#X connect 3 0 2 1;
#X restore 586 531 pd cvRouteContours_8_cell;
#N canvas 0 0 450 300 cvRouteContours_8_cell 0;
#X obj 54 61 inlet;
#X obj 86 130 t a b;
#X obj 57 202 cvRouteContours 1 2 3 4 5 6 7 8;
#X msg 123 169 1 2 3 4 5 6 7 8;
#X obj 258 367 outlet;
#X obj 72 368 outlet;
#X connect 0 0 1 0;
#X connect 1 0 2 0;
#X connect 1 1 3 0;
#X connect 2 0 5 0;
#X connect 2 1 5 0;
#X connect 2 2 5 0;
#X connect 2 3 5 0;
#X connect 2 4 5 0;
#X connect 2 5 5 0;
#X connect 2 6 5 0;
#X connect 2 7 5 0;
#X connect 2 8 4 0;
#X connect 3 0 2 1;
#X restore 627 563 pd cvRouteContours_8_cell;
#N canvas 0 0 450 300 cvRouteContours_8_cell 0;
#X obj 54 61 inlet;
#X obj 86 130 t a b;
#X obj 57 202 cvRouteContours 1 2 3 4 5 6 7 8;
#X msg 123 169 1 2 3 4 5 6 7 8;
#X obj 258 367 outlet;
#X obj 72 368 outlet;
#X connect 0 0 1 0;
#X connect 1 0 2 0;
#X connect 1 1 3 0;
#X connect 2 0 5 0;
#X connect 2 1 5 0;
#X connect 2 2 5 0;
#X connect 2 3 5 0;
#X connect 2 4 5 0;
#X connect 2 5 5 0;
#X connect 2 6 5 0;
#X connect 2 7 5 0;
#X connect 2 8 4 0;
#X connect 3 0 2 1;
#X restore 663 595 pd cvRouteContours_8_cell;
#X connect 0 0 2 0;
#X connect 2 0 1 0;
#X connect 2 1 3 0;
#X connect 3 0 1 0;
#X connect 3 1 4 0;
#X connect 4 0 1 0;
#X connect 4 1 5 0;
#X connect 5 0 1 0;
#X connect 5 1 6 0;
#X connect 6 0 1 0;
#X connect 6 1 7 0;
#X connect 7 0 1 0;
#X connect 7 1 8 0;
#X connect 8 0 1 0;
#X connect 8 1 9 0;
#X connect 9 0 1 0;
#X connect 9 1 10 0;
#X connect 10 0 1 0;
#X connect 10 1 11 0;
#X connect 11 0 1 0;
#X connect 11 1 12 0;
#X connect 12 0 1 0;
#X connect 12 1 13 0;
#X connect 13 0 1 0;
#X connect 13 1 14 0;
#X connect 14 0 1 0;
#X connect 14 1 15 0;
#X connect 15 0 1 0;
#X connect 15 1 16 0;
#X connect 16 0 1 0;
#X connect 16 1 17 0;
#X connect 17 0 1 0;
