#N canvas 0 0 902 521 12;
#X obj 105 1 inlet;
#X obj 105 526 outlet;
#X obj 247 3 inlet;
#X obj 125 380 t b f;
#X obj 125 415 f;
#X obj 125 278 swap;
#X obj 105 501 pack f f;
#X obj 105 470 f;
#X obj 125 312 moses \$1;
#X obj 105 31 t b b l b;
#X msg 165 439 -1;
#X obj 125 346 moses 3e+033;
#X msg 234 278 3e+033;
#N canvas 0 0 788 545 matching_method 0;
#X obj 47 10 inlet vect1;
#X obj 498 26 inlet vect2;
#X obj 158 462 outlet result;
#X obj 498 66 unpack f f f f f f f;
#X obj 334 168 -;
#X obj 284 167 -;
#X obj 237 165 -;
#X obj 190 165 -;
#X obj 142 162 -;
#X obj 92 163 -;
#X obj 45 165 -;
#X obj 197 354 +;
#X obj 250 355 +;
#X obj 135 356 +;
#X obj 219 384 +;
#X obj 121 383 +;
#X obj 159 412 +;
#X obj 45 77 unpack f f f f f f f f f f f f f f;
#X obj 45 220 * 1;
#X obj 93 224 * 1;
#X obj 138 221 * 1;
#X obj 188 222 * 1;
#X obj 238 226 * 1;
#X obj 283 225 * 1;
#X obj 338 223 * 1;
#N canvas 0 0 450 300 ^2 0;
#X obj 110 43 inlet;
#X obj 102 183 outlet;
#X obj 122 91 t f f;
#X obj 129 129 *;
#X connect 0 0 2 0;
#X connect 2 0 3 0;
#X connect 2 1 3 1;
#X connect 3 0 1 0;
#X restore 45 192 pd ^2;
#N canvas 0 0 450 300 ^2 0;
#X obj 110 43 inlet;
#X obj 102 183 outlet;
#X obj 122 91 t f f;
#X obj 129 129 *;
#X connect 0 0 2 0;
#X connect 2 0 3 0;
#X connect 2 1 3 1;
#X connect 3 0 1 0;
#X restore 93 192 pd ^2;
#N canvas 0 0 450 300 ^2 0;
#X obj 110 43 inlet;
#X obj 102 183 outlet;
#X obj 122 91 t f f;
#X obj 129 129 *;
#X connect 0 0 2 0;
#X connect 2 0 3 0;
#X connect 2 1 3 1;
#X connect 3 0 1 0;
#X restore 141 193 pd ^2;
#N canvas 0 0 450 300 ^2 0;
#X obj 110 43 inlet;
#X obj 102 183 outlet;
#X obj 122 91 t f f;
#X obj 129 129 *;
#X connect 0 0 2 0;
#X connect 2 0 3 0;
#X connect 2 1 3 1;
#X connect 3 0 1 0;
#X restore 189 193 pd ^2;
#N canvas 0 0 450 300 ^2 0;
#X obj 110 43 inlet;
#X obj 102 183 outlet;
#X obj 122 91 t f f;
#X obj 129 129 *;
#X connect 0 0 2 0;
#X connect 2 0 3 0;
#X connect 2 1 3 1;
#X connect 3 0 1 0;
#X restore 236 193 pd ^2;
#N canvas 0 0 450 300 ^2 0;
#X obj 110 43 inlet;
#X obj 102 183 outlet;
#X obj 122 91 t f f;
#X obj 129 129 *;
#X connect 0 0 2 0;
#X connect 2 0 3 0;
#X connect 2 1 3 1;
#X connect 3 0 1 0;
#X restore 284 194 pd ^2;
#N canvas 0 0 450 300 ^2 0;
#X obj 110 43 inlet;
#X obj 102 183 outlet;
#X obj 122 91 t f f;
#X obj 129 129 *;
#X connect 0 0 2 0;
#X connect 2 0 3 0;
#X connect 2 1 3 1;
#X connect 3 0 1 0;
#X restore 332 194 pd ^2;
#X connect 0 0 17 0;
#X connect 1 0 3 0;
#X connect 3 0 10 1;
#X connect 3 1 9 1;
#X connect 3 2 8 1;
#X connect 3 3 7 1;
#X connect 3 4 6 1;
#X connect 3 5 5 1;
#X connect 3 6 4 1;
#X connect 4 0 31 0;
#X connect 5 0 30 0;
#X connect 6 0 29 0;
#X connect 7 0 28 0;
#X connect 8 0 27 0;
#X connect 9 0 26 0;
#X connect 10 0 25 0;
#X connect 11 0 14 0;
#X connect 12 0 14 1;
#X connect 13 0 15 1;
#X connect 14 0 16 1;
#X connect 15 0 16 0;
#X connect 16 0 2 0;
#X connect 17 0 10 0;
#X connect 17 1 9 0;
#X connect 17 2 8 0;
#X connect 17 3 7 0;
#X connect 17 4 6 0;
#X connect 17 5 5 0;
#X connect 17 6 4 0;
#X connect 17 7 18 1;
#X connect 17 8 19 1;
#X connect 17 9 20 1;
#X connect 17 10 21 1;
#X connect 17 11 22 1;
#X connect 17 12 23 1;
#X connect 17 13 24 1;
#X connect 18 0 15 0;
#X connect 19 0 13 0;
#X connect 20 0 13 1;
#X connect 21 0 11 0;
#X connect 22 0 11 1;
#X connect 23 0 12 0;
#X connect 24 0 12 1;
#X connect 25 0 18 0;
#X connect 26 0 19 0;
#X connect 27 0 20 0;
#X connect 28 0 21 0;
#X connect 29 0 22 0;
#X connect 30 0 23 0;
#X connect 31 0 24 0;
#X restore 416 244 pd matching_method;
#X obj 145 204 list split 1;
#N canvas 0 0 826 514 append_models 0;
#X obj 214 31 inlet;
#X obj 160 300 outlet;
#X obj 209 72 route clear;
#X msg 160 167 set;
#X msg 208 164 addcomma;
#X obj 360 188 f;
#X obj 399 190 + 1;
#X msg 383 157 0;
#X obj 301 163 t l b;
#X obj 304 272 list prepend;
#X obj 313 301 list prepend add2;
#X obj 320 330 list trim;
#X obj 344 217 select 0;
#X msg 401 246 0;
#X obj 456 240 t b f;
#X obj 347 60 list append 1 1 1 1 1 1 1;
#X obj 359 97 list split 14;
#X text 564 54 ponderation;
#X connect 0 0 2 0;
#X connect 2 0 3 0;
#X connect 2 0 7 0;
#X connect 2 1 15 0;
#X connect 3 0 1 0;
#X connect 4 0 1 0;
#X connect 5 0 6 0;
#X connect 5 0 12 0;
#X connect 6 0 5 1;
#X connect 7 0 5 1;
#X connect 8 0 9 0;
#X connect 8 1 5 0;
#X connect 9 0 10 0;
#X connect 10 0 11 0;
#X connect 11 0 1 0;
#X connect 12 0 13 0;
#X connect 12 1 14 0;
#X connect 13 0 9 1;
#X connect 14 0 4 0;
#X connect 14 1 9 1;
#X connect 15 0 16 0;
#X connect 16 0 8 0;
#X restore 247 116 pd append_models;
#X msg 348 137 0 -1.82 -8.33 -10.96 -16.42 -8.47 -6.07 -0.75 5899.95
0.6399 0.9765 0.2768 0.0011 0.0023 0.001 \, 1 -1.75 -6.65 -11.66 -15.27
-5.57 -0.06 -4.58 790.675 0.4981 0.2295 0.1853 0.0011 0.0025 0.0011
;
#X obj 424 332 print;
#X obj 399 301 pack f f;
#X connect 0 0 9 0;
#X connect 2 0 15 0;
#X connect 3 0 4 0;
#X connect 3 1 6 1;
#X connect 3 1 11 1;
#X connect 4 0 7 1;
#X connect 5 0 8 0;
#X connect 5 1 4 1;
#X connect 6 0 1 0;
#X connect 7 0 6 0;
#X connect 8 0 11 0;
#X connect 9 0 7 0;
#X connect 9 1 16 0;
#X connect 9 2 13 1;
#X connect 9 3 12 0;
#X connect 9 3 10 0;
#X connect 10 0 7 1;
#X connect 11 0 3 0;
#X connect 12 0 11 1;
#X connect 12 0 6 1;
#X connect 13 0 5 1;
#X connect 13 0 18 1;
#X connect 14 0 5 0;
#X connect 14 1 13 0;
#X connect 15 0 16 0;
#X connect 16 0 14 0;
#X connect 18 0 17 0;
