#N canvas 0 0 902 521 12;
#X obj 105 1 inlet;
#X obj 105 526 outlet;
#X obj 247 3 inlet;
#X obj 125 380 t b f;
#X obj 125 415 f;
#X obj 125 278 swap;
#X obj 105 501 pack f f;
#X obj 105 470 f;
#X obj 125 312 moses \$1;
#X obj 105 31 t b b l b;
#X msg 165 439 -1;
#X obj 125 346 moses 3e+033;
#X msg 234 278 3e+033;
#X msg 125 157;
#N canvas 0 0 788 545 matching_method 0;
#X obj 46 38 inlet vect1;
#X obj 197 35 inlet vect2;
#X obj 158 337 outlet result;
#X obj 197 75 unpack f f f f f f f;
#X obj 273 199 abs;
#X obj 273 169 -;
#X obj 242 199 abs;
#X obj 242 169 -;
#X obj 212 199 abs;
#X obj 212 169 -;
#X obj 181 199 abs;
#X obj 181 169 -;
#X obj 150 198 abs;
#X obj 150 168 -;
#X obj 120 198 abs;
#X obj 120 168 -;
#X obj 89 198 abs;
#X obj 89 168 -;
#X obj 197 229 +;
#X obj 250 230 +;
#X obj 135 231 +;
#X obj 219 259 +;
#X obj 121 258 +;
#X obj 159 287 +;
#X obj 45 77 unpack f f f f f f f;
#X connect 0 0 24 0;
#X connect 1 0 3 0;
#X connect 3 0 17 1;
#X connect 3 1 15 1;
#X connect 3 2 13 1;
#X connect 3 3 11 1;
#X connect 3 4 9 1;
#X connect 3 5 7 1;
#X connect 3 6 5 1;
#X connect 4 0 19 1;
#X connect 5 0 4 0;
#X connect 6 0 19 0;
#X connect 7 0 6 0;
#X connect 8 0 18 1;
#X connect 9 0 8 0;
#X connect 10 0 18 0;
#X connect 11 0 10 0;
#X connect 12 0 20 1;
#X connect 13 0 12 0;
#X connect 14 0 20 0;
#X connect 15 0 14 0;
#X connect 16 0 22 0;
#X connect 17 0 16 0;
#X connect 18 0 21 0;
#X connect 19 0 21 1;
#X connect 20 0 22 1;
#X connect 21 0 23 1;
#X connect 22 0 23 0;
#X connect 23 0 2 0;
#X connect 24 0 17 0;
#X connect 24 1 15 0;
#X connect 24 2 13 0;
#X connect 24 3 11 0;
#X connect 24 4 9 0;
#X connect 24 5 7 0;
#X connect 24 6 5 0;
#X restore 185 233 pd matching_method;
#X obj 145 204 list split 1;
#N canvas 0 0 450 300 append_models 0;
#X obj 214 31 inlet;
#X obj 160 300 outlet;
#X obj 209 72 route clear;
#X msg 160 167 set;
#X msg 208 164 addcomma;
#X obj 360 188 f;
#X obj 399 190 + 1;
#X msg 383 157 0;
#X obj 301 163 t l b;
#X obj 304 272 list prepend;
#X obj 313 301 list prepend add2;
#X obj 320 330 list trim;
#X obj 344 217 select 0;
#X msg 401 246 0;
#X obj 456 240 t b f;
#X connect 0 0 2 0;
#X connect 2 0 3 0;
#X connect 2 0 7 0;
#X connect 2 1 8 0;
#X connect 3 0 1 0;
#X connect 4 0 1 0;
#X connect 5 0 6 0;
#X connect 5 0 12 0;
#X connect 6 0 5 1;
#X connect 7 0 5 1;
#X connect 8 0 9 0;
#X connect 8 1 5 0;
#X connect 9 0 10 0;
#X connect 10 0 11 0;
#X connect 11 0 1 0;
#X connect 12 0 13 0;
#X connect 12 1 14 0;
#X connect 13 0 9 1;
#X connect 14 0 4 0;
#X connect 14 1 9 1;
#X restore 247 116 pd append_models;
#X connect 0 0 9 0;
#X connect 2 0 16 0;
#X connect 3 0 4 0;
#X connect 3 1 6 1;
#X connect 3 1 11 1;
#X connect 4 0 7 1;
#X connect 5 0 8 0;
#X connect 5 1 4 1;
#X connect 6 0 1 0;
#X connect 7 0 6 0;
#X connect 8 0 11 0;
#X connect 9 0 7 0;
#X connect 9 1 13 0;
#X connect 9 2 14 1;
#X connect 9 3 12 0;
#X connect 9 3 10 0;
#X connect 10 0 7 1;
#X connect 11 0 3 0;
#X connect 12 0 11 1;
#X connect 12 0 6 1;
#X connect 13 0 15 0;
#X connect 14 0 5 1;
#X connect 15 0 5 0;
#X connect 15 1 14 0;
#X connect 16 0 13 0;
