#N canvas 683 103 1257 717 12;
#X declare -lib pix_opencv;
#X obj 29 20 cnv 15 700 60 empty empty CVLIB:OpenCV_with_Pure_Data
20 30 0 30 -219146 -66577 0;
#X text 37 139 1) click here ------------------>;
#X obj 54 207 gemhead;
#X obj 53 239 pix_video;
#X obj 94 294 pix_gray;
#X obj 277 172 gemwin;
#X msg 329 172 destroy;
#X obj 53 267 t a a;
#X obj 601 41 cvlib-overview;
#X text 49 87 cvContoursInterpolPoints;
#X text 552 571 aqrgument 1 : nb of points for interpolation (default
64 \, max 1024);
#X text 465 124 resample contour into specified number of points;
#X obj 73 566 cvDrawContours;
#X obj 96 372 pix_rgba;
#X msg 275 137 reset \, dimen 640 480 \, create \, 1;
#X obj 89 613 pix_texture;
#X obj 89 638 rectangle 5.333 4;
#X obj 224 526 cvInterpolContours 64;
#X msg 208 156 0;
#X obj 96 347 cvFindContours;
#X obj 938 138 declare -lib pix_opencv;
#X floatatom 382 502 5 0 0 0 - - -, f 5;
#X floatatom 220 363 5 0 0 0 - - -, f 5;
#X floatatom 239 290 5 0 0 0 - - -, f 5;
#X obj 93 321 pix_opencv_athreshold;
#X msg 248 221 501;
#X obj 336 438 cvContoursFeatures Area;
#X obj 225 498 cvRouteContours 1;
#X obj 338 466 > 200;
#X obj 17 167 loadbang;
#X msg 12 508 color 0 0 255 \, thickness 3;
#X obj 235 395 t a a;
#X connect 2 0 3 0;
#X connect 3 0 7 0;
#X connect 4 0 24 0;
#X connect 6 0 5 0;
#X connect 7 1 4 0;
#X connect 12 0 15 0;
#X connect 13 0 12 0;
#X connect 14 0 5 0;
#X connect 15 0 16 0;
#X connect 17 0 12 1;
#X connect 18 0 5 0;
#X connect 19 0 13 0;
#X connect 19 1 31 0;
#X connect 19 2 22 0;
#X connect 21 0 17 1;
#X connect 23 0 24 2;
#X connect 24 0 19 0;
#X connect 25 0 23 0;
#X connect 26 0 28 0;
#X connect 27 0 17 0;
#X connect 28 0 27 1;
#X connect 29 0 25 0;
#X connect 29 0 30 0;
#X connect 30 0 12 0;
#X connect 31 0 27 0;
#X connect 31 1 26 0;
