#N canvas 612 57 1181 909 12;
#X declare -lib pix_opencv;
#X declare -lib cvlib;
#X obj 46 66 pix_opencv_athreshold;
#X text 54 33 pix_opencv;
#X text 328 29 cvlib;
#X obj 322 103 pix_opencv_bgsubstract;
#X obj 323 136 pix_opencv_contours_boundingrect;
#X obj 321 168 pix_opencv_hu_compare;
#X obj 322 196 pix_opencv_threshold;
#X obj 318 225 pix_opencv_contours_convexity;
#X obj 42 103 pix_opencv_bgsubstract;
#X obj 55 133 pix_opencv_contours_boundingrect;
#X obj 41 168 pix_opencv_hu_compare;
#X obj 42 199 pix_opencv_threshold;
#X obj 38 225 pix_opencv_contours_convexity;
#X text 305 81 * FLEXT PORT OF PIX_OPENCV OBJECTS;
#X obj 330 288 cvErode;
#X obj 330 319 cvDilate;
#X obj 332 347 cvGaussian;
#X obj 330 371 cvMedian;
#X obj 330 428 cvCanny;
#X text 413 288 morphology : erosion;
#X text 411 318 morphology : dilatation;
#X text 419 342 gaussian filtering;
#X text 417 371 median filtering;
#X text 425 424 edge detector;
#X obj 54 300 pix_opencv_morphology;
#X obj 65 403 pix_opencv_edge;
#X obj 62 451 pix_opencv_laplace;
#X obj 335 706 cvHoughCircles;
#X text 451 506 contour detection;
#X obj 334 515 cvFindContours;
#X text 462 708 circle detection;
#X obj 312 806 cvDrawContours;
#X text 296 749 * DRAWING FUNCTIONS;
#X text 303 491 * PROCESSING CONTOURS;
#X obj 334 544 cvApproxContours;
#X obj 334 581 cvRouteContours 0 1 2 3;
#X obj 330 673 cvContoursConvexHull;
#X obj 334 608 cvSortContours;
#X obj 579 578 cvContoursConvexityDefects;
#X text 786 576 getting convexity defects;
#X text 838 487 getting specified Contours Feature;
#X text 604 549 *** input : contours / output : vectors/values;
#X text 888 520 (FOR EACH CONTOUR) ***;
#X text 782 608 getting points of contours (option : output into tables)
;
#X obj 657 610 cvContoursPoints;
#X text 501 644 resample contour into specified number of points;
#X text 685 100 Abstractions;
#X obj 313 871 cvShowImage;
#X text 305 842 * IMAGE RENDERING;
#X text 445 866 (render only pix_data \, no GL);
#X text 435 773 drawing circles into an image (pix_data);
#X text 194 299 erode/dilate;
#X obj 45 707 pix_opencv_hough_circles;
#X text 219 705 <- comparer ->;
#X text 189 403 <- voir si edge et canny ne sont pas identiques ->
, f 17;
#X obj 786 43 declare -lib pix_opencv;
#X obj 315 774 cvDrawCircles;
#X text 423 804 drawing contours into an image (piu_data);
#X obj 654 489 cvContoursFeatures Area;
#X obj 320 58 cvAthreshold;
#X text 419 61 (abstraction);
#X text 389 441 (abstraction);
#X obj 733 384 cvContoursCount;
#X text 869 384 nb of contours in cvContours struct;
#X obj 700 140 cvForEachContour;
#X text 811 136 (abstraction) 'for each contour' (serialize contours)
;
#X obj 703 173 cvHuCompare;
#X obj 699 203 cvHuCompare2;
#X text 823 176 (euclidian distance between Hu moments);
#X text 830 205 (mahalobis distance between Hu moments);
#X obj 685 238 cvContoursFFT 32 6;
#X text 829 236 renvoie les magnitudes des n premiers points de la
fft d'un contour (necessite iem_tab lib);
#X obj 334 644 cvInterpolContours 32;
#X obj 623 671 cvContoursInterpolPoints 32;
#X text 536 671 old name:;
#X obj 786 66 declare -lib cvlib;
